<svg width="216" height="82" viewBox="0 0 216 82" fill="none" xmlns="http://www.w3.org/2000/svg">
<path fill-rule="evenodd" clip-rule="evenodd" d="M134.006 24.25C134.009 38.085 134.462 50.122 135.06 52.277C136.365 56.978 141.428 62.863 145.702 64.649C147.651 65.463 152.724 66 158.468 66H168V60.099V54.199L159.035 53.849C146.877 53.376 146.638 53.099 146.155 38.979L145.779 28H152.389H159V22V16H152.5H146V8V0H140H134L134.006 24.25ZM0 41V66H5.775H11.55L13.222 56.2C15.093 45.238 19.159 33.28 22.083 30.141C27.009 24.854 30.077 32.985 31.558 55.25L32.273 66H38.288H44.304L43.695 53.75C42.754 34.824 38.788 22.816 31.941 18.161C27.352 15.041 20.586 15.553 15.542 19.4L12 22.102V19.051V16H6H0V41ZM46.006 25.75C46.013 38.199 47.243 42.567 52.026 47.13C54.892 49.863 58.096 51.468 65.008 53.63L74.185 56.5L73.723 61.418C73.433 64.506 72.619 66.806 71.534 67.599C68.124 70.092 54.168 70.537 48.429 68.334C47.28 67.893 47 69.071 47 74.348V80.909L50.547 81.575C52.498 81.941 58.042 82.051 62.867 81.821C73.207 81.326 79.314 78.449 83.163 72.259C85.433 68.609 85.509 67.742 85.824 42.25L86.147 16H80.074H74L73.985 28.25C73.976 34.987 73.612 41.064 73.174 41.752C72.543 42.746 71.357 42.701 67.422 41.533C58.82 38.978 58.611 38.641 58.166 26.602L57.773 16H51.887H46L46.006 25.75ZM107.994 16.934C103.407 18.33 99.538 20.796 95.86 24.668C90.688 30.114 88.692 34.617 88.621 41C88.468 54.747 101.242 66 117 66C122.202 66 130.531 63.795 133.483 61.636C135.384 60.246 135.389 60.074 133.665 54.606C132.693 51.522 131.722 49 131.506 49C131.291 49 129.626 49.867 127.807 50.927C116.579 57.468 100.92 51.739 100.638 40.987C100.543 37.348 101.038 36.355 104.602 33.03C111.005 27.057 120.953 26.443 128.487 31.556L132 33.94L131.985 27.22C131.976 23.524 131.628 19.963 131.21 19.306C129.517 16.643 114.121 15.071 107.994 16.934ZM170.2 21.75L170.5 27.5L185.199 28.032C193.283 28.325 200.143 28.81 200.443 29.11C200.744 29.41 197.954 30.214 194.245 30.896C178.374 33.812 170.995 40.1 171.004 50.7C171.009 57.017 173.828 61.566 179.271 64.036C184.328 66.332 192.803 66.524 198.5 64.471C203.535 62.657 204 62.66 204 64.5C204 65.667 205.333 66 210 66H216V43.589V21.178L212.923 18.589L209.847 16H189.873H169.9L170.2 21.75ZM112.484 37.016L108.562 41.033L112.781 45.252L117 49.471L121.219 45.252L125.438 41.033L121.516 37.016C119.359 34.807 117.327 33 117 33C116.673 33 114.641 34.807 112.484 37.016ZM202.647 46.302C201.041 50.147 197.6 52.422 191.722 53.524C182.038 55.341 178.889 49.694 187.191 45.401C190.899 43.484 202.268 41.101 203.318 42.02C203.769 42.414 203.466 44.341 202.647 46.302Z" fill="#C863A1"/>
</svg>
